<?xml version="1.0" encoding="iso-8859-1"?>
<!-- Generator: Adobe Illustrator 21.0.0, SVG Export Plug-In . SVG Version: 6.00 Build 0)  -->
<svg xmlns="http://www.w3.org/2000/svg" xmlns:xlink="http://www.w3.org/1999/xlink" version="1.1" id="Capa_1" x="0px" y="0px" viewBox="0 0 512 512" style="enable-background:new 0 0 512 512;" xml:space="preserve" width="512" height="512">
<g>
	<path style="fill:#FFCDBE;" d="M345.03,420h-270V167h270V420z"/>
	<path style="fill:#FFCDBE;" d="M345.03,420h-135V167h135V420z"/>
	<path style="fill:#FFCDBE;" d="M345.03,197h-90V45c0-24.813,20.187-45,45-45s45,20.187,45,45V197z"/>
	<path style="fill:#FFBEAA;" d="M120.03,238c-24.813,0-45-20.187-45-45v-37c0-24.813,20.187-45,45-45s45,20.187,45,45v37   C165.03,217.813,144.843,238,120.03,238z"/>
	<path style="fill:#FFDECF;" d="M180.03,258c-24.813,0-45-20.187-45-45v-67c0-24.813,20.187-45,45-45s45,20.187,45,45v67   C225.03,237.813,204.843,258,180.03,258z"/>
	<path style="fill:#FFBEAA;" d="M240.03,278c-24.813,0-45-20.187-45-45v-97c0-24.813,20.187-45,45-45s45,20.187,45,45v97   C285.03,257.813,264.843,278,240.03,278z"/>
	<path style="fill:#FFDECF;" d="M345.03,420h-135v-89c0-52.383,42.617-95,95-95h18.36l61.782-61.781   c17.545-17.545,46.095-17.545,63.64,0c17.545,17.545,17.545,46.094,0,63.639L345.03,341.64V420z"/>
	<path style="fill:#00429B;" d="M370.03,512h-320v-96h320V512z"/>
	<rect x="210.03" y="416" style="fill:#002659;" width="160" height="96"/>
</g>















</svg>
