<svg xmlns="http://www.w3.org/2000/svg" width="37.983" height="37.983" viewBox="0 0 37.983 37.983"><g transform="translate(-155.731 -220.971)"><circle cx="18.992" cy="18.992" r="18.992" transform="translate(155.731 220.971)" fill="#f7782b"/><path d="M171.832,237.456c-.37-1.417-1.76-2.453-2.769-3.457a16.788,16.788,0,0,0-3.387-2.834A1.351,1.351,0,0,0,163.842,233a22.762,22.762,0,0,0,2.775,3.446c.251.283.49.578.73.87a3.026,3.026,0,0,0,.006,3.939,2.656,2.656,0,0,0,1.3.723c.055.03.1.072.158.1a1.761,1.761,0,0,0,2.03-.262,3,3,0,0,0,.823-3.182A1.666,1.666,0,0,0,171.832,237.456Z" fill="#473f1d"/><path d="M176.6,237.456c.37-1.417,1.76-2.453,2.769-3.457a16.787,16.787,0,0,1,3.387-2.834A1.351,1.351,0,0,1,184.586,233a22.755,22.755,0,0,1-2.774,3.446c-.251.283-.491.578-.731.87a3.025,3.025,0,0,1-.006,3.939,2.656,2.656,0,0,1-1.3.723c-.054.03-.1.072-.158.1a1.762,1.762,0,0,1-2.03-.262,2.993,2.993,0,0,1-.822-3.182A1.662,1.662,0,0,1,176.6,237.456Z" fill="#473f1d"/><path d="M175.133,244.7c-3.534-.243-11.517-1.029-11.612,4.184a.974.974,0,0,0,.486.847l.343.185a.8.8,0,0,0,1.165-.895c-.424-2.509,18.238-4.019,18.235,1.065a.828.828,0,0,0,1.655,0C185.576,244.954,178.823,244.951,175.133,244.7Z" fill="#473f1d"/></g></svg>