<svg xmlns="http://www.w3.org/2000/svg" width="39.169" height="37.983" viewBox="0 0 39.169 37.983"><g transform="translate(-191.4 -366.767)"><circle cx="18.992" cy="18.992" r="18.992" transform="translate(191.892 366.767)" fill="#f7cf2b"/><path d="M200.467,388.9c-.753-.156-1.5-.306-2.26-.418a2.864,2.864,0,0,0-.487-.025l-.04-.009a1.746,1.746,0,0,0-1.883.766,1.685,1.685,0,0,0,.261,2.021c.06.053.124.1.186.148a1.519,1.519,0,0,0,.977.674l.145.022a4.757,4.757,0,0,0,1.12.344,4.046,4.046,0,0,0,1.933.1,1.35,1.35,0,0,0,.84-.6A1.833,1.833,0,0,0,200.467,388.9Z" fill="#f99569"/><path d="M225.751,388.665a10.239,10.239,0,0,0-4.748.984c-1.309.6-1.013,2.7.255,3.144a1.557,1.557,0,0,0,1.2.537,7.02,7.02,0,0,0,2.761-.62,7.827,7.827,0,0,0,.946-.355,1.382,1.382,0,0,0,.577-.553A1.741,1.741,0,0,0,225.751,388.665Z" fill="#f99569"/><path d="M218.375,390c-.724-.956-3.285-.77-4.3-.793q-3.1-.07-6.209-.036c-1.322.015-4.427-.253-4.659,1.69-.24,2.014,2.457,3.837,4.059,4.383a12.749,12.749,0,0,0,8.084.027,4.63,4.63,0,0,0,1.848-1.021,5.653,5.653,0,0,0,1.2-2.378,2.173,2.173,0,0,0,.027-1.813C218.4,390.037,218.39,390.017,218.375,390Z" fill="#fff"/><path d="M218.9,390.074c-.553-1.4-3.009-1.255-4.189-1.152a.452.452,0,0,0-.192.06c-1.379-.129-2.766-.164-4.189-.173-1.9-.011-4.573-.385-6.358.449-3.448,1.612.458,5.566,2.461,6.378,3.367,1.365,8.839,1.316,11.365-1.674C218.593,393.015,219.394,391.342,218.9,390.074Zm-14.929.3a3.562,3.562,0,0,0-.209,1.481c-.029.01-.058.017-.086.027A1.358,1.358,0,0,1,203.966,390.377Zm.574,2.835a2.593,2.593,0,0,0-.02-.728,8.749,8.749,0,0,0,1.193.082,6.843,6.843,0,0,0,.033,1.67A6.863,6.863,0,0,1,204.54,393.212Zm1.193-1.561a8.06,8.06,0,0,0-1.322.059V391.7a4.915,4.915,0,0,0-.217-1.517,2.588,2.588,0,0,1,.341-.209,3.656,3.656,0,0,1,1.33-.332A10.1,10.1,0,0,0,205.733,391.651Zm.611,2.917a5.379,5.379,0,0,0,.188-1.995c.725.012,1.451.009,2.177,0-.012.916,0,1.833.018,2.749A9.245,9.245,0,0,1,206.344,394.568Zm2.375-2.86-1.681-.018c-.162,0-.328-.007-.495-.013a9.966,9.966,0,0,0-.068-2.067c.778-.019,1.577.038,2.183.022l.231,0A9.156,9.156,0,0,0,208.719,391.708Zm.481,3.69c.092-.944.18-1.888.239-2.834l1.009-.018q.607-.01,1.215-.025a25.362,25.362,0,0,0,.179,2.964A12.827,12.827,0,0,1,209.2,395.4Zm2.489-3.688c-.319,0-.638.009-.957.009-.412,0-.824,0-1.237-.007a8.866,8.866,0,0,0-.013-2.092c.848-.01,1.7-.005,2.542,0A9.378,9.378,0,0,0,211.689,391.71Zm2.488,3.372a10.885,10.885,0,0,1-1.839.36c.107-.976.163-1.961.211-2.941.577-.014,1.153-.032,1.73-.049C214.233,393.334,214.228,394.223,214.177,395.082ZM212.6,391.7a11,11,0,0,0,.03-2.075c.59.005,1.18.009,1.77.007a.379.379,0,0,0,.258.122,10.942,10.942,0,0,0-.323,1.9C213.756,391.673,213.178,391.691,212.6,391.7Zm4.111,2a5.8,5.8,0,0,1-1.837,1.151c-.091.036-.19.066-.284.1.1-.823.24-1.668.328-2.513.606-.02,1.212-.045,1.818-.07C216.718,392.809,216.708,393.254,216.71,393.7Zm.063-2.3-.007.173c-.6.024-1.189.05-1.783.069a9.877,9.877,0,0,0-.052-1.879,8.011,8.011,0,0,1,2.023.171A5.471,5.471,0,0,0,216.773,391.4Zm.671,1.43c.005-.163.009-.327.011-.49.09,0,.18-.006.27-.011A4.019,4.019,0,0,1,217.444,392.827Zm.549-1.3c-.175.008-.351.013-.526.02V391.4a6.251,6.251,0,0,0-.065-1.29A1.182,1.182,0,0,1,217.993,391.522Z" fill="#473f1d"/><path d="M230.3,379.968a2.6,2.6,0,0,0-.687-1.707.345.345,0,0,0-.178-.549,52.859,52.859,0,0,0-11.828-.486,4.417,4.417,0,0,0-.929.037c-1.362.059-2.715.122-4.046.161-.547.016-1.1.029-1.646.042-.549-.013-1.1-.026-1.645-.042-1.331-.039-2.684-.1-4.047-.161a4.41,4.41,0,0,0-.928-.037,52.867,52.867,0,0,0-11.829.486.345.345,0,0,0-.177.549,2.6,2.6,0,0,0-.687,1.707c-1.272,3.952,2.1,8.479,6.44,9.009,5.42.661,11.2-3.756,11.34-9.229a1.565,1.565,0,0,0-.014-.2c.432.018.864.042,1.3.065v.025l.249-.012.249.012,0-.025c.432-.023.864-.047,1.3-.065a1.773,1.773,0,0,0-.014.2c.142,5.473,5.92,9.89,11.34,9.229C228.192,388.447,231.569,383.92,230.3,379.968Z" fill="#473f1d"/></g></svg>