<svg xmlns="http://www.w3.org/2000/svg" width="80" height="80" viewBox="0 0 80 80"><g transform="translate(-1055.833 -766.832)"><circle cx="40" cy="40" r="40" transform="translate(1055.833 766.832)" fill="#f7cf2b"/><path d="M311.072,261.6c-3.488-2.879-7.277-7.064-11.67-8.46-2.049-.653-3.492,1.7-2.626,3.414,1.278,2.525,3.629,4.638,6,6.582-1.683.8-3.359,1.62-5.038,2.433-3.745,1.82-.472,7.264,3.246,5.554,3.157-1.451,6.314-2.892,9.431-4.425A3.26,3.26,0,0,0,311.072,261.6Z" transform="translate(774.916 535.145)" fill="#473f1d"/><path d="M313.573,266.189c4.328,1.321,9.434,3.726,14.027,3.328,2.142-.185,2.57-2.913,1.112-4.162-2.15-1.841-5.133-2.888-8.069-3.77q1.864-2.085,3.715-4.183c2.759-3.119-2.355-6.887-5.131-3.88-2.357,2.553-4.718,5.1-7.007,7.709A3.261,3.261,0,0,0,313.573,266.189Z" transform="translate(792.046 534.477)" fill="#473f1d"/><path d="M349.848,272c-1.9-2.169-1.552-5.246-4.648-6.369-3.564-1.293-4.031,2.174-6.535,2.294-2.761.133-3.867-2.955-7.241-2.172-2.494.579-4.189,3.174-5.99,3.376-.112.013-2.317-1.38-2.8-1.493-2.07-.484-2.4-.046-3.993.314-3.671.83-3.9,3.913-8.054,1.491-1.108-.647-1.807-2.262-2.966-3.016-5.141-3.34-12.517.567-12.338,6.731a.9.9,0,0,0,.455.783,4.931,4.931,0,0,0,.044,2.527,1.955,1.955,0,0,0,3.239.853c.992-1.091,1.363-2.576,2.525-3.521,1.4-1.14,2.892-1.013,4.566-.857a21.856,21.856,0,0,0,1.439,2.037c1.569,1.584,3.073,2.768,5.362,2.919,2.839.19,4.434-2.258,6.946-2.8,3.071-.661,1.251.27,3.581.655a13.6,13.6,0,0,0,2.862.634c2.066-.089,2.934-1.776,4.615-2.431,3.263-1.268,3.258,1.083,6.5,1.257,1.955.105,3.772-1.982,5.063-2.085a12.544,12.544,0,0,0,1.03.878,25.509,25.509,0,0,1,1.8,2.532C348.032,279.652,352.567,275.094,349.848,272Z" transform="translate(774.026 548.613)" fill="#473f1d"/></g></svg>