<svg xmlns="http://www.w3.org/2000/svg" width="37.983" height="37.983" viewBox="0 0 37.983 37.983"><g transform="translate(-268.127 -306.792)"><circle cx="18.992" cy="18.992" r="18.992" transform="translate(268.127 306.792)" fill="#f7cf2b"/><path d="M281.11,317.987a2.067,2.067,0,0,0-2.83,0,3.879,3.879,0,0,0-1.216,3.467,2.967,2.967,0,0,0,.135,1.01,2.8,2.8,0,0,0,1.035,1.414,3.564,3.564,0,0,0,.848.63,2.045,2.045,0,0,0,2.972-1.209c.016-.081.029-.163.043-.245A4.3,4.3,0,0,0,281.11,317.987Z" fill="#473f1d"/><path d="M296.436,317.987a2.067,2.067,0,0,0-2.83,0,3.884,3.884,0,0,0-1.216,3.467,2.967,2.967,0,0,0,.135,1.01,2.8,2.8,0,0,0,1.035,1.414,3.564,3.564,0,0,0,.848.63,2.045,2.045,0,0,0,2.972-1.209c.016-.081.029-.163.044-.245A4.3,4.3,0,0,0,296.436,317.987Z" fill="#473f1d"/><path d="M291.508,328.536a2.992,2.992,0,0,1-2.18,1.965c-1.017.2-2.031-.248-3.051-.186a.546.546,0,0,0-.519.681c.407,1.921,2.827,2.294,4.445,1.924a5.31,5.31,0,0,0,3.814-3.693C294.535,327.623,292.058,326.97,291.508,328.536Z" fill="#473f1d"/><path d="M276.745,324.632c-.871-.244-1.74-.467-2.621-.667a2.421,2.421,0,0,0-1.325.081,2.02,2.02,0,0,0-1.644,2.227,1.589,1.589,0,0,0,.108,1.005,1.689,1.689,0,0,0,.736.767l-.038.022a5.746,5.746,0,0,0,1.715.506,7,7,0,0,0,2.553.4A2.215,2.215,0,0,0,276.745,324.632Z" fill="#f99569"/><path d="M302.388,324.436a6.372,6.372,0,0,0-3.927.4,8.779,8.779,0,0,0-1.116.316,1.7,1.7,0,0,0-1.14,2.085c.981,2.631,4.232,1.387,6.245,1C304.392,327.861,304.2,324.847,302.388,324.436Z" fill="#f99569"/></g></svg>