<svg xmlns="http://www.w3.org/2000/svg" width="44.523" height="37.983" viewBox="0 0 44.523 37.983"><g transform="translate(-366.025 -75.335)"><circle cx="18.992" cy="18.992" r="18.992" transform="translate(369.328 75.335)" fill="#f7cf2b"/><path d="M392.109,101a5.246,5.246,0,0,0-3.767-.945c-1.446.1-3.119.469-3.927,1.806a2.781,2.781,0,0,0,.788,3.768,4.938,4.938,0,0,0,3.593.889,4.671,4.671,0,0,0,3.818-1.574A2.881,2.881,0,0,0,392.109,101Z" fill="#f99569"/><path d="M394.526,92.824c-.254.11-.507.219-.765.317a15.635,15.635,0,0,1-7.632.561c-1.98-.261-4.2-1.141-6.2-.728a3.871,3.871,0,0,0,.381,1.735,8.313,8.313,0,0,0,1.444,2.572c1.214,1.3,3.1,1.684,4.874,1.891a12.622,12.622,0,0,0,4.951-.165,7.738,7.738,0,0,0,4.256-3.3c.487-.773,2.366-4.23.09-3.458C395.448,92.416,394.988,92.623,394.526,92.824Z" fill="#fff"/><path d="M382.275,87.328c-.565-.946-1.107-1.911-1.7-2.841-.469-.737-1.009-1.709-1.975-1.74a.78.78,0,0,0-.769.451c-.464.835.1,1.821.485,2.6.162.327.335.649.506.973-.878.03-1.755.1-2.63.2-1.832.207-1.437,3.044.4,2.837a38.474,38.474,0,0,1,4.4-.227A1.427,1.427,0,0,0,382.275,87.328Z" fill="#473f1d"/><path d="M395.064,88.636c1.081.207,2.162.446,3.249.624.862.141,1.948.386,2.614-.314a.782.782,0,0,0,.175-.875c-.313-.9-1.426-1.136-2.259-1.366-.351-.1-.707-.182-1.062-.27q.843-1.012,1.6-2.093c1.065-1.505-1.315-3.1-2.382-1.592a38.4,38.4,0,0,1-2.76,3.433A1.427,1.427,0,0,0,395.064,88.636Z" fill="#473f1d"/><path d="M374.182,89.709c-.393.093-.723.185-.878.222a44.955,44.955,0,0,0-5.194,1.56,3.239,3.239,0,0,0-1.537.937c-.9,1.179-.743,3.266.832,3.64,1.334.318,2.9-.672,4.014-1.283a15.218,15.218,0,0,0,4.836-4.311C377.281,89.105,375.42,89.414,374.182,89.709Z" fill="#07b5dd"/><path d="M401.356,90.092c.3.271.561.492.678.6A45.406,45.406,0,0,0,406.25,94.1a3.246,3.246,0,0,0,1.641.741c1.479.076,3.116-1.227,2.538-2.739-.49-1.281-2.19-2.017-3.323-2.592a15.2,15.2,0,0,0-6.286-1.566C399.111,87.872,400.415,89.235,401.356,90.092Z" fill="#07b5dd"/><path d="M397.229,90.368c-4.973,2.61-12.83,1.735-18.143.739a.8.8,0,0,0-.868,1.055,1.6,1.6,0,0,0-.264.982c.265,6.56,2.9,16.159,11.418,15.194,7.146-.81,9.074-10.886,10.023-16.564A1.413,1.413,0,0,0,397.229,90.368Zm-5.258,13.572c-2.634,2.228-5.606,1.377-7.657-.724a4.8,4.8,0,0,1,1-1.229,6.837,6.837,0,0,1,1.247-.735c2.084-.236,4.674-.692,6.081,1.167a1.717,1.717,0,0,0,.384.356A6.548,6.548,0,0,1,391.971,103.94Zm3.658-9.537c-.772,1.877-3.469,3.239-5.187,3.592a10.15,10.15,0,0,1-6.969-1.1c-.338-.214-2.711-2.6-2.185-2.691a28.184,28.184,0,0,1,4.777.165,48.775,48.775,0,0,0,5.257-.09c1.5-.135,3.084-.76,4.517-.81A2.764,2.764,0,0,1,395.629,94.4Z" fill="#473f1d"/><path d="M381.456,80.115c-.969-2.375-5.289-2-5.978.506a.862.862,0,0,0,.417,1.109c.5.175.934-.338,1.3-.584a4.312,4.312,0,0,1,3.6-.368C381.15,80.855,381.623,80.525,381.456,80.115Z" fill="#473f1d"/><path d="M400.221,80.115c-.968-2.375-5.288-2-5.977.506a.862.862,0,0,0,.416,1.109c.5.175.934-.338,1.3-.584a4.312,4.312,0,0,1,3.6-.368C399.915,80.855,400.388,80.525,400.221,80.115Z" fill="#473f1d"/></g></svg>