<svg xmlns="http://www.w3.org/2000/svg" width="37.983" height="37.983" viewBox="0 0 37.983 37.983"><g transform="translate(-155.924 -79.709)"><circle cx="18.992" cy="18.992" r="18.992" transform="translate(155.924 79.709)" fill="#f7cf2b"/><path d="M168.606,90.547c-.79-.768-1.562-1.561-2.373-2.306-.643-.592-1.416-1.392-2.357-1.173a.783.783,0,0,0-.627.635c-.234.926.569,1.732,1.138,2.382.241.274.491.541.74.809q-1.262.384-2.491.868c-1.717.673-.6,3.312,1.116,2.638a38.481,38.481,0,0,1,4.192-1.354A1.426,1.426,0,0,0,168.606,90.547Z" fill="#473f1d"/><path d="M181.51,92.261c1,.474,1.98.978,2.987,1.424.8.355,1.787.865,2.608.356a.78.78,0,0,0,.391-.8c-.075-.952-1.094-1.459-1.841-1.892-.316-.183-.638-.355-.96-.529q1.071-.768,2.081-1.621c1.411-1.187-.489-3.33-1.9-2.141a38.4,38.4,0,0,1-3.538,2.625A1.427,1.427,0,0,0,181.51,92.261Z" fill="#473f1d"/><path d="M179.689,96.989l-1.9.253a12.073,12.073,0,0,1-4.946.057c-.776-.229-3.092-1.948-3.307-.315-.922,7.017,8.487,8.024,11.106,2.443a24.7,24.7,0,0,0,.518-2.633Z" fill="#f99569"/><path d="M182.391,96.517a1.368,1.368,0,0,0-1.34-1.34c-2.029.028-3.923.822-5.953.852-2.114.03-3.975-.967-6.018-1.009a.768.768,0,0,0-.809.676,1.523,1.523,0,0,0-.594,1.533c.594,4.335,2.694,8.013,7.646,7.621A7.6,7.6,0,0,0,182.391,96.517Zm-7.412,5.527c-2.747.123-3.781-1.671-4.2-3.847,2.626,1.006,5.979.1,8.788-.23A4.943,4.943,0,0,1,174.979,102.044Z" fill="#473f1d"/><path d="M163.688,96c-.867-.258-1.732-.495-2.61-.71a2.423,2.423,0,0,0-1.326.06,2.046,2.046,0,0,0-1.537,1.22,2.069,2.069,0,0,0-.144.98,1.6,1.6,0,0,0,.092,1.006,1.691,1.691,0,0,0,.723.779l-.038.022a5.758,5.758,0,0,0,1.707.533,7,7,0,0,0,2.546.441A2.215,2.215,0,0,0,163.688,96Z" fill="#f99569"/><path d="M190.64,95.575a6.368,6.368,0,0,0-3.933.333,8.939,8.939,0,0,0-1.121.3,1.7,1.7,0,0,0-1.174,2.067c.938,2.647,4.209,1.455,6.228,1.1C192.588,99.031,192.445,96.015,190.64,95.575Z" fill="#f99569"/><path d="M179.689,96.989l-1.9.253a12.073,12.073,0,0,1-4.946.057c-.776-.229-3.092-1.948-3.307-.315-.922,7.017,8.487,8.024,11.106,2.443a24.7,24.7,0,0,0,.518-2.633Z" fill="#f99569"/><path d="M179.689,96.989l-1.9.253a12.073,12.073,0,0,1-4.946.057c-.776-.229-3.092-1.948-3.307-.315-.922,7.017,8.487,8.024,11.106,2.443a24.7,24.7,0,0,0,.518-2.633Z" fill="#f99569"/><path d="M179.689,96.989l-1.9.253a12.073,12.073,0,0,1-4.946.057c-.776-.229-3.092-1.948-3.307-.315-.922,7.017,8.487,8.024,11.106,2.443a24.7,24.7,0,0,0,.518-2.633Z" fill="#f99569"/></g></svg>