<svg xmlns="http://www.w3.org/2000/svg" width="37.984" height="37.984" viewBox="0 0 37.984 37.984"><g transform="translate(-370.593 -159.112)"><circle cx="18.992" cy="18.992" r="18.992" transform="translate(370.593 159.112)" fill="#f7cf2b"/><path d="M384.255,172.981c-.022-.172-.04-.345-.074-.518a1.7,1.7,0,0,0-1.429-1.231,1.736,1.736,0,0,0-.624.045,1.458,1.458,0,0,0-1.347.794,4.826,4.826,0,0,0-.461,2.168,4.54,4.54,0,0,0,.289,1.907c.014.038.03.074.046.11a3.894,3.894,0,0,0,.482.862,1.774,1.774,0,0,0,1.454.834,1.652,1.652,0,0,0,1.453-.834A5.3,5.3,0,0,0,384.255,172.981Z" fill="#473f1d"/><path d="M398.27,172.981c-.023-.172-.04-.345-.074-.518a1.7,1.7,0,0,0-1.429-1.231,1.736,1.736,0,0,0-.624.045,1.457,1.457,0,0,0-1.347.794,4.826,4.826,0,0,0-.461,2.168,4.54,4.54,0,0,0,.289,1.907c.014.038.03.074.046.11a3.893,3.893,0,0,0,.482.862,1.773,1.773,0,0,0,1.453.834,1.655,1.655,0,0,0,1.454-.834A5.3,5.3,0,0,0,398.27,172.981Z" fill="#473f1d"/><path d="M390.862,179.7c-.178.947-1.655,1.656-2.29.745a8.981,8.981,0,0,1-.477-.981,1.388,1.388,0,0,0-1.051-.8c-1.382-.094-.683,1.884-.3,2.47a4.35,4.35,0,0,0,2.381,1.8,3.541,3.541,0,0,0,4.051-2.925C393.479,178.534,391.14,178.22,390.862,179.7Z" fill="#473f1d"/><path d="M379.055,178.411c-.866-.259-1.732-.495-2.61-.71a2.432,2.432,0,0,0-1.326.059,2.021,2.021,0,0,0-1.68,2.2,1.589,1.589,0,0,0,.092,1.006,1.686,1.686,0,0,0,.723.779l-.038.022a5.761,5.761,0,0,0,1.706.533,7.025,7.025,0,0,0,2.547.441A2.215,2.215,0,0,0,379.055,178.411Z" fill="#f99569"/><path d="M402.6,177.683c-.89.156-1.77.332-2.652.532a2.431,2.431,0,0,0-1.159.646,2.048,2.048,0,0,0-.829,1.779,2.07,2.07,0,0,0,.31.941,1.593,1.593,0,0,0,.532.859,1.686,1.686,0,0,0,1,.373l-.024.037a5.768,5.768,0,0,0,1.765-.287,7.007,7.007,0,0,0,2.475-.744A2.215,2.215,0,0,0,402.6,177.683Z" fill="#f99569"/></g></svg>