<svg xmlns="http://www.w3.org/2000/svg" width="37.983" height="37.983" viewBox="0 0 37.983 37.983"><g transform="translate(-426.631 -228.405)"><circle cx="18.992" cy="18.992" r="18.992" transform="translate(426.632 228.405)" fill="#f7cf2b"/><path d="M451.439,251.8c-1.353-6.271-11.027-5.1-11.224,1.151a.855.855,0,0,0,1.589.4c.779-1.557,1.435-3.089,3.286-3.618a3.457,3.457,0,0,1,4.327,2.657C449.7,253.713,451.725,253.118,451.439,251.8Z" fill="#473f1d"/><path d="M434.758,246.418c-.87-.244-1.739-.467-2.621-.668a2.427,2.427,0,0,0-1.324.082,2.022,2.022,0,0,0-1.645,2.227,1.6,1.6,0,0,0,.108,1,1.694,1.694,0,0,0,.736.767l-.038.022a5.785,5.785,0,0,0,1.715.506,7.022,7.022,0,0,0,2.554.4A2.215,2.215,0,0,0,434.758,246.418Z" fill="#f99569"/><path d="M461.7,245.55a6.372,6.372,0,0,0-3.927.4,8.774,8.774,0,0,0-1.116.316,1.7,1.7,0,0,0-1.14,2.085c.981,2.631,4.232,1.387,6.244,1C463.7,248.975,463.512,245.961,461.7,245.55Z" fill="#f99569"/><path d="M441.3,240.973a3.258,3.258,0,0,0-2.92-1.488c-.05,0-.1.018-.15.025a2.945,2.945,0,0,0-1.16.1,3.43,3.43,0,0,0-2.08,4.5c.021.056.054.1.077.159a3.077,3.077,0,0,0,2.2,2.433,2.975,2.975,0,0,0,2.825-.689c.066-.065.111-.148.17-.219A3.525,3.525,0,0,0,441.3,240.973Z" fill="#473f1d"/><path d="M455.172,240.628c-1.293-2.326-4.646-2.094-6,.027-.025.039-.04.08-.063.119a3.185,3.185,0,0,0-.14,3.487,3.546,3.546,0,0,0,3.706,1.59,2.456,2.456,0,0,0,.422-.124A3.592,3.592,0,0,0,455.172,240.628Z" fill="#473f1d"/><path d="M438.547,240.206l-.04-.013a1.218,1.218,0,0,0-1.34.57l-.028.043c-.672,1.009.585,2.219,1.6,1.755A1.26,1.26,0,0,0,438.547,240.206Z" fill="#fff"/><path d="M438,243.692l-.038-.041a.912.912,0,0,0-.9-.221l-.055.016a.9.9,0,0,0-.187,1.636,1.52,1.52,0,0,0,.324.132A.909.909,0,0,0,438,243.692Z" fill="#fff"/><path d="M453.112,239.74a1.213,1.213,0,1,0,1.232,1.193A1.233,1.233,0,0,0,453.112,239.74Z" fill="#fff"/><path d="M451.7,242.251a1.117,1.117,0,0,0,.037,2.233A1.117,1.117,0,0,0,451.7,242.251Z" fill="#fff"/><path d="M439.464,235.5c-.92-.181-1.576.432-2.334.861a24.813,24.813,0,0,0-2.607,1.678.252.252,0,0,0,.134.463,5.581,5.581,0,0,0,3.2-.631c.865-.441,1.834-.915,1.916-1.984A.408.408,0,0,0,439.464,235.5Z" fill="#473f1d"/><path d="M456.675,237.476a4.782,4.782,0,0,0-2.157-1.768,3.63,3.63,0,0,0-2.42-.788.456.456,0,0,0-.3.554c.155.851,1.108,1.462,1.792,1.888a4.057,4.057,0,0,0,2.614.972A.573.573,0,0,0,456.675,237.476Z" fill="#473f1d"/></g></svg>