<svg xmlns="http://www.w3.org/2000/svg" width="80" height="80.029" viewBox="0 0 80 80.029"><g transform="translate(0 -0.012)"><ellipse cx="33.305" cy="33.286" rx="33.305" ry="33.286" transform="matrix(0.228, -0.974, 0.974, 0.228, 0, 64.869)" fill="#f7cf2b"/><path d="M191.824,309.043c-3.86,4.332-11.507,7.557-17.812,5.136a.062.062,0,0,1-.028-.088c1.4-2.073,4.645-2.142,6.765-3.105,3.028-1.376,5.4-3.455,7.994-5.53C190.554,304,193.5,307.161,191.824,309.043Z" transform="translate(-155.719 -289.41)" fill="#473f1d"/><path d="M190.045,313.6c4.524-3.635,12.6-5.552,18.418-2.126a.062.062,0,0,1,.012.091c-1.719,1.815-4.934,1.348-7.185,1.949-3.214.857-5.9,2.512-8.8,4.132C190.468,318.783,188.079,315.183,190.045,313.6Z" transform="translate(-144.187 -285.943)" fill="#473f1d"/><path d="M181.523,321.543c-1.522-.453-3.04-.869-4.582-1.246a4.253,4.253,0,0,0-2.328.105,3.545,3.545,0,0,0-2.949,3.862,2.787,2.787,0,0,0,.16,1.766,2.969,2.969,0,0,0,1.269,1.367l-.067.039a10.109,10.109,0,0,0,3,.936,12.323,12.323,0,0,0,4.469.774A3.889,3.889,0,0,0,181.523,321.543Z" transform="translate(-157.512 -278.031)" fill="#f99569"/><path d="M204.3,320.258c-1.564.274-3.109.583-4.655.934a4.258,4.258,0,0,0-2.035,1.134,3.549,3.549,0,0,0-.911,4.775,2.786,2.786,0,0,0,.934,1.508,2.96,2.96,0,0,0,1.747.655l-.042.065a10.107,10.107,0,0,0,3.1-.5,12.3,12.3,0,0,0,4.345-1.308A3.889,3.889,0,0,0,204.3,320.258Z" transform="translate(-139.055 -278.024)" fill="#f99569"/><path d="M187.367,315.458c-2.4.232-4.8.3-7.211.381-1.922.063-3.844-.061-5.57.885a.58.58,0,0,0-.118.906c2.02,1.763,5.2,2.052,8.235,1.963a10.316,10.316,0,0,0,1.264,3.182,1.954,1.954,0,0,0,3.047.393,8.175,8.175,0,0,0,2.264-5.8A1.924,1.924,0,0,0,187.367,315.458Z" transform="translate(-155.474 -281.597)" fill="#473f1d"/><path d="M203.843,315.458c-2.4.232-4.8.3-7.211.381-1.922.063-3.844-.061-5.57.885a.581.581,0,0,0-.116.906c2.019,1.763,5.2,2.052,8.235,1.963a10.273,10.273,0,0,0,1.264,3.182,1.953,1.953,0,0,0,3.046.393,8.175,8.175,0,0,0,2.264-5.8A1.923,1.923,0,0,0,203.843,315.458Z" transform="translate(-143.078 -281.597)" fill="#473f1d"/><path d="M191.7,330.274c-1.608.149-3.644.453-4.878-.89-.923-1-.9-2.586-1.174-3.842a.78.78,0,0,0-.8-.518c-3.056.546-2.644,4.438-1.306,6.4,1.791,2.628,5.468,3.493,8.458,2.888C194.479,333.809,194.372,330.024,191.7,330.274Z" transform="translate(-149.276 -274.388)" fill="#473f1d"/></g></svg>