<svg xmlns="http://www.w3.org/2000/svg" width="37.983" height="37.983" viewBox="0 0 37.983 37.983"><g transform="translate(-237.223 -154.016)"><circle cx="18.992" cy="18.992" r="18.992" transform="translate(237.223 154.016)" fill="#f7cf2b"/><path d="M245.831,171.073c-.866-.259-1.732-.495-2.61-.71a2.428,2.428,0,0,0-1.325.059,2.024,2.024,0,0,0-1.681,2.2,1.6,1.6,0,0,0,.092,1.006,1.686,1.686,0,0,0,.723.779l-.038.022a5.791,5.791,0,0,0,1.706.533,7.029,7.029,0,0,0,2.547.441A2.215,2.215,0,0,0,245.831,171.073Z" fill="#f99569"/><path d="M269.374,170.345c-.89.156-1.77.332-2.652.532a2.435,2.435,0,0,0-1.159.646,2.049,2.049,0,0,0-.829,1.779,2.07,2.07,0,0,0,.31.941,1.6,1.6,0,0,0,.532.859,1.689,1.689,0,0,0,1,.373l-.025.037a5.762,5.762,0,0,0,1.765-.287,7.007,7.007,0,0,0,2.475-.744A2.215,2.215,0,0,0,269.374,170.345Z" fill="#f99569"/><path d="M263.837,175.092c-.724-.956-3.285-.77-4.3-.794q-3.1-.07-6.209-.036c-1.321.015-4.427-.253-4.659,1.69-.24,2.014,2.457,3.837,4.059,4.384a12.748,12.748,0,0,0,8.084.026,4.612,4.612,0,0,0,1.848-1.021,5.651,5.651,0,0,0,1.2-2.377,2.173,2.173,0,0,0,.027-1.813C263.866,175.131,263.852,175.111,263.837,175.092Z" fill="#fff"/><path d="M264.357,175.168c-.553-1.4-3.009-1.256-4.189-1.153a.457.457,0,0,0-.192.061c-1.379-.129-2.766-.164-4.189-.173-1.9-.012-4.573-.386-6.357.448-3.448,1.613.457,5.566,2.46,6.378,3.367,1.365,8.84,1.317,11.366-1.673C264.055,178.109,264.856,176.436,264.357,175.168Zm-14.929.3a3.6,3.6,0,0,0-.209,1.482c-.029.009-.058.016-.086.026A1.36,1.36,0,0,1,249.428,175.47ZM250,178.3a2.521,2.521,0,0,0-.02-.728,8.593,8.593,0,0,0,1.194.082,6.8,6.8,0,0,0,.033,1.671A6.868,6.868,0,0,1,250,178.3Zm1.193-1.561a8.171,8.171,0,0,0-1.322.06v-.009a4.881,4.881,0,0,0-.217-1.517,2.7,2.7,0,0,1,.341-.21,3.682,3.682,0,0,1,1.33-.331A10.09,10.09,0,0,0,251.2,176.744Zm.611,2.918a5.379,5.379,0,0,0,.188-1.995c.726.011,1.452.008,2.178,0-.013.916,0,1.832.018,2.748A9.239,9.239,0,0,1,251.806,179.662Zm2.375-2.861c-.56-.006-1.12-.013-1.68-.018-.163,0-.329-.006-.5-.012a9.908,9.908,0,0,0-.068-2.068c.778-.018,1.577.039,2.184.023l.23,0A9.165,9.165,0,0,0,254.181,176.8Zm.482,3.691c.091-.944.179-1.889.238-2.835l1.009-.017,1.215-.026a25.57,25.57,0,0,0,.179,2.964A12.746,12.746,0,0,1,254.663,180.492Zm2.488-3.688c-.319,0-.638.008-.956.009-.413,0-.825,0-1.237-.007a8.866,8.866,0,0,0-.014-2.092c.848-.011,1.7-.006,2.542,0A9.427,9.427,0,0,0,257.151,176.8Zm2.488,3.371a10.79,10.79,0,0,1-1.839.36c.107-.976.163-1.96.211-2.94.577-.014,1.154-.032,1.73-.049C259.7,178.428,259.69,179.317,259.639,180.175Zm-1.577-3.38a11.168,11.168,0,0,0,.03-2.075c.59,0,1.18.008,1.769.007a.388.388,0,0,0,.259.122,10.745,10.745,0,0,0-.323,1.9C259.218,176.766,258.64,176.785,258.062,176.795Zm4.11,2a5.826,5.826,0,0,1-1.836,1.151c-.092.036-.19.066-.285.1.105-.823.24-1.669.328-2.513.606-.02,1.212-.046,1.818-.07C262.181,177.9,262.17,178.347,262.172,178.791Zm.063-2.3-.007.172c-.594.024-1.189.05-1.783.07a9.876,9.876,0,0,0-.051-1.879,7.973,7.973,0,0,1,2.023.17A5.44,5.44,0,0,0,262.235,176.491Zm.672,1.43c0-.164.008-.327.011-.491l.269-.01A4.089,4.089,0,0,1,262.907,177.921Zm.548-1.306c-.175.008-.351.013-.526.021l0-.145a6.333,6.333,0,0,0-.066-1.291A1.181,1.181,0,0,1,263.455,176.615Z" fill="#473f1d"/><path d="M250.854,164.952a3.412,3.412,0,0,0-3.488,3.819.8.8,0,0,0,1.339.353c.587-.732.752-1.918,1.879-1.987a1.483,1.483,0,0,1,1.5,1.637,1.144,1.144,0,0,0,2.286,0A3.677,3.677,0,0,0,250.854,164.952Z" fill="#473f1d"/><path d="M262.626,164.952a3.413,3.413,0,0,0-3.488,3.819.805.805,0,0,0,1.34.353c.587-.732.751-1.918,1.878-1.987a1.483,1.483,0,0,1,1.5,1.637,1.144,1.144,0,0,0,2.286,0A3.676,3.676,0,0,0,262.626,164.952Z" fill="#473f1d"/></g></svg>